<?xml version="1.0" encoding="utf-8"?><svg id="open" image-rendering="auto" baseProfile="basic" version="1.1" x="0px" y="0px" width="243" height="332" xmlns="http://www.w3.org/2000/svg" xmlns:xlink="http://www.w3.org/1999/xlink"><g id="Cena-1" overflow="visible"><g display="none" id="Layer260_0_FILL"><path fill="#999" stroke="none" d="M198.1 185.1Q229.9 153.3 229.9 108.45 229.9 63.5 198.1 31.75 166.45 0 121.5 0 76.55 0 44.85 31.75 13.1 63.5 13.1 108.45 13.1 153.3 44.85 185.1 76.55 216.85 121.5 216.85 166.45 216.85 198.1 185.1M182.75 108.45Q182.75 133.8 164.8 151.75 146.85 169.75 121.5 169.75 96.05 169.75 78.2 151.75 60.25 133.8 60.25 108.45 60.25 83.05 78.2 65.15 96.05 47.2 121.5 47.2 146.85 47.2 164.8 65.15 182.75 83.05 182.75 108.45Z"/><animate attributeName="display" repeatCount="indefinite" dur="10.542s" keyTimes="0;.079;1" values="none;inline;inline"/></g><g display="none" id="Layer259_0_FILL"><path fill="#999" stroke="none" d="M198.1 186.7Q229.9 154.9 229.9 110.05 229.9 65.1 198.1 33.35 166.45 1.6 121.5 1.6 76.55 1.6 44.85 33.35 13.1 65.1 13.1 110.05 13.1 154.9 44.85 186.7 76.55 218.45 121.5 218.45 166.45 218.45 198.1 186.7M182.75 110.05Q182.75 135.4 164.8 153.35 146.85 171.35 121.5 171.35 96.05 171.35 78.2 153.35 60.25 135.4 60.25 110.05 60.25 84.65 78.2 66.75 96.05 48.8 121.5 48.8 146.85 48.8 164.8 66.75 182.75 84.65 182.75 110.05Z"/><animate attributeName="display" repeatCount="indefinite" dur="10.542s" keyTimes="0;.075;.079;1" values="none;inline;none;none"/></g><g display="none" id="Layer258_0_FILL"><path fill="#999" stroke="none" d="M198.1 191.55Q229.9 159.75 229.9 114.9 229.9 69.95 198.1 38.2 166.45 6.45 121.5 6.45 76.55 6.45 44.85 38.2 13.1 69.95 13.1 114.9 13.1 159.75 44.85 191.55 76.55 223.3 121.5 223.3 166.45 223.3 198.1 191.55M182.75 114.9Q182.75 140.25 164.8 158.2 146.85 176.2 121.5 176.2 96.05 176.2 78.2 158.2 60.25 140.25 60.25 114.9 60.25 89.5 78.2 71.6 96.05 53.65 121.5 53.65 146.85 53.65 164.8 71.6 182.75 89.5 182.75 114.9Z"/><animate attributeName="display" repeatCount="indefinite" dur="10.542s" keyTimes="0;.071;.075;1" values="none;inline;none;none"/></g><g display="none" id="Layer257_0_FILL"><path fill="#999" stroke="none" d="M229.9 122.95Q229.9 78 198.1 46.25 166.45 14.5 121.5 14.5 76.55 14.5 44.85 46.25 13.1 78 13.1 122.95 13.1 167.8 44.85 199.6 76.55 231.35 121.5 231.35 166.45 231.35 198.1 199.6 229.9 167.8 229.9 122.95M182.75 122.95Q182.75 148.3 164.8 166.25 146.85 184.25 121.5 184.25 96.05 184.25 78.2 166.25 60.25 148.3 60.25 122.95 60.25 97.55 78.2 79.65 96.05 61.7 121.5 61.7 146.85 61.7 164.8 79.65 182.75 97.55 182.75 122.95Z"/><animate attributeName="display" repeatCount="indefinite" dur="10.542s" keyTimes="0;.067;.071;1" values="none;inline;none;none"/></g><g display="none" id="Layer256_0_FILL"><path fill="#999" stroke="none" d="M229.9 134.2Q229.9 89.25 198.1 57.5 166.45 25.75 121.5 25.75 76.55 25.75 44.85 57.5 13.1 89.25 13.1 134.2 13.1 179.05 44.85 210.85 76.55 242.6 121.5 242.6 166.45 242.6 198.1 210.85 229.9 179.05 229.9 134.2M182.75 134.2Q182.75 159.55 164.8 177.5 146.85 195.5 121.5 195.5 96.05 195.5 78.2 177.5 60.25 159.55 60.25 134.2 60.25 108.8 78.2 90.9 96.05 72.95 121.5 72.95 146.85 72.95 164.8 90.9 182.75 108.8 182.75 134.2Z"/><animate attributeName="display" repeatCount="indefinite" dur="10.542s" keyTimes="0;.063;.067;1" values="none;inline;none;none"/></g><g display="none" id="Layer255_0_FILL"><path fill="#999" stroke="none" d="M229.9 148.75Q229.9 103.8 198.1 72.05 166.45 40.3 121.5 40.3 76.55 40.3 44.85 72.05 13.1 103.8 13.1 148.75 13.1 193.6 44.85 225.4 76.55 257.15 121.5 257.15 166.45 257.15 198.1 225.4 229.9 193.6 229.9 148.75M182.75 148.75Q182.75 174.1 164.8 192.05 146.85 210.05 121.5 210.05 96.05 210.05 78.2 192.05 60.25 174.1 60.25 148.75 60.25 123.35 78.2 105.45 96.05 87.5 121.5 87.5 146.85 87.5 164.8 105.45 182.75 123.35 182.75 148.75Z"/><animate attributeName="display" repeatCount="indefinite" dur="10.542s" keyTimes="0;.059;.063;1" values="none;inline;none;none"/></g><g display="none" id="Layer249_0_FILL"><path fill="#999" stroke="none" d="M229.9 166.4Q229.9 121.45 198.1 89.7 166.45 57.95 121.5 57.95 76.55 57.95 44.85 89.7 13.1 121.45 13.1 166.4 13.1 211.25 44.85 243.05 76.55 274.8 121.5 274.8 166.45 274.8 198.1 243.05 229.9 211.25 229.9 166.4M164.8 123.1Q182.75 141 182.75 166.4 182.75 191.75 164.8 209.7 146.85 227.7 121.5 227.7 96.05 227.7 78.2 209.7 60.25 191.75 60.25 166.4 60.25 141 78.2 123.1 96.05 105.15 121.5 105.15 146.85 105.15 164.8 123.1Z"/><animate attributeName="display" repeatCount="indefinite" dur="10.542s" keyTimes="0;.036;.059;1" values="none;inline;none;none"/></g><g display="none" id="Layer248_0_FILL"><path fill="#999" stroke="none" d="M230.7 166.4Q230.7 121.1 198.7 89.1 166.8 57.15 121.5 57.15 76.2 57.15 44.25 89.1 12.3 121.1 12.3 166.4 12.3 211.6 44.25 243.65 76.2 275.6 121.5 275.6 166.8 275.6 198.7 243.65 230.7 211.6 230.7 166.4M166.8 120.95Q169.75 123.85 172.2 126.9 185.65 143.75 185.7 166.2 185.7 192.75 167.15 211.5 148.1 230.6 121.7 230.65 95 230.65 76.3 211.95 57.3 192.95 57.3 166.5L57.3 166.4Q57.3 143.8 70.85 126.9 73.25 123.85 76.1 121 94.9 102.2 121.5 102.2 148.05 102.25 166.8 120.95Z"/><animate attributeName="display" repeatCount="indefinite" dur="10.542s" keyTimes="0;.032;.036;1" values="none;inline;none;none"/></g><g display="none" id="Layer247_0_FILL"><path fill="#999" stroke="none" d="M233.2 166.4Q233.2 120.1 200.45 87.4 167.8 54.65 121.5 54.65 75.2 54.65 42.55 87.4 9.85 120.1 9.85 166.4 9.85 212.6 42.55 245.4 75.2 278.1 121.5 278.1 167.8 278.1 200.45 245.4 233.2 212.6 233.2 166.4M173.05 114.7Q176.45 118.05 179.2 121.5 194.5 140.7 194.55 166.25 194.5 196.5 173.35 217.8 151.7 239.4 121.65 239.45 91.3 239.45 70.05 218.2 48.5 196.55 48.5 166.5L48.5 166.4Q48.5 140.7 63.9 121.45 66.65 118 69.9 114.8 91.25 93.4 121.45 93.4 151.75 93.4 173.05 114.7Z"/><animate attributeName="display" repeatCount="indefinite" dur="10.542s" keyTimes="0;.028;.032;1" values="none;inline;none;none"/></g><g display="none" id="Layer246_0_FILL"><path fill="#999" stroke="none" d="M237.3 166.4Q237.3 118.4 203.35 84.5 169.5 50.55 121.5 50.55 73.5 50.55 39.65 84.5 5.75 118.4 5.75 166.4 5.75 214.3 39.65 248.3 73.5 282.2 121.5 282.2 169.5 282.2 203.35 248.3 237.3 214.3 237.3 166.4M183.5 104.35Q187.5 108.3 190.85 112.45 209.25 135.6 209.25 166.3 209.2 202.7 183.7 228.3 157.65 254.1 121.6 254.15 85.2 254.1 59.6 228.5 33.8 202.6 33.8 166.45L33.8 166.4Q33.8 135.55 52.3 112.4 55.6 108.25 59.5 104.35 85.15 78.7 121.35 78.65 157.85 78.7 183.5 104.35Z"/><animate attributeName="display" repeatCount="indefinite" dur="10.542s" keyTimes="0;.024;.028;1" values="none;inline;none;none"/></g><g display="none" id="Layer245_0_FILL"><path fill="#999" stroke="none" d="M243.05 166.4Q243.05 116.05 207.4 80.45 171.9 44.8 121.5 44.8 71.15 44.8 35.6 80.45 0 116.05 0 166.4 0 216.7 35.6 252.35 71.15 287.95 121.5 287.95 171.9 287.95 207.4 252.35 243.05 216.7 243.05 166.4M207.15 99.85Q229.9 128.45 229.9 166.4 229.9 211.25 198.15 243 166.4 274.7 121.55 274.7 76.7 274.7 44.95 243 13.2 211.25 13.2 166.4 13.2 128.3 36.05 99.75 40.15 94.6 44.95 89.8 76.7 58.05 121.55 58.05 166.4 58.05 198.15 89.8 203 94.65 207.15 99.85Z"/><animate attributeName="display" repeatCount="indefinite" dur="10.542s" keyTimes="0;.02;.024;1" values="none;inline;none;none"/></g><g display="none" id="Layer244_0_FILL"><path fill="#999" stroke="none" d="M231.8 166.4Q231.8 120.7 199.45 88.4 167.25 56.05 121.5 56.05 75.8 56.05 43.55 88.4 11.25 120.7 11.25 166.4 11.25 212.05 43.55 244.4 75.8 276.7 121.5 276.7 167.25 276.7 199.45 244.4 231.8 212.05 231.8 166.4M219.8 162.65Q219.85 164.5 219.85 166.4 219.85 207.1 191.05 235.9 188.9 238.1 186.65 240.05 162.9 261.3 131.6 264.2 126.65 264.65 121.55 264.65 80.85 264.65 52.05 235.9 29.15 213.05 24.45 182.6L23.25 166.4Q23.25 131.85 43.95 105.9 47.7 101.25 52.05 96.9 56.45 92.5 61.1 88.75 87.05 68.1 121.55 68.1 162.25 68.1 191.05 96.9 195.45 101.3 199.2 106 218.75 130.5 219.8 162.65Z"/><animate attributeName="display" repeatCount="indefinite" dur="10.542s" keyTimes="0;.016;.02;1" values="none;inline;none;none"/></g><g display="none" id="Layer243_0_FILL"><path fill="#999" stroke="none" d="M214.15 166.4Q214.15 128 186.95 100.9 159.9 73.7 121.5 73.7 83.15 73.7 56.05 100.9 28.9 128 28.9 166.4 28.9 204.7 56.05 231.9 83.15 259.05 121.5 259.05 159.9 259.05 186.95 231.9 214.15 204.7 214.15 166.4M179.85 108Q183.55 111.7 186.75 115.65 203.15 136.25 204.05 163.25 204.1 164.8 204.1 166.4 204.1 200.55 179.9 224.75 178.05 226.55 176.2 228.25 156.3 246.1 129.95 248.5 125.8 248.9 121.5 248.9 87.35 248.9 63.2 224.75 43.95 205.55 40 180L39 166.4Q39 137.35 56.4 115.65 59.5 111.7 63.15 108.05 66.85 104.35 70.8 101.25 92.55 83.85 121.55 83.85 155.7 83.85 179.85 108Z"/><animate attributeName="display" repeatCount="indefinite" dur="10.542s" keyTimes="0;.012;.016;1" values="none;inline;none;none"/></g><g display="none" id="Layer242_0_FILL"><path fill="#999" stroke="none" d="M190.05 166.4Q190.05 138 169.95 117.9 149.9 97.8 121.5 97.8 93.1 97.8 73.05 117.9 53 138 53 166.4 53 194.75 73.05 214.85 93.1 234.95 121.5 234.95 149.9 234.95 169.95 214.85 190.05 194.75 190.05 166.4M164.65 123.2Q167.4 125.9 169.75 128.85 181.9 144.1 182.55 164.05 182.6 165.2 182.6 166.4 182.55 191.65 164.7 209.55 163.35 210.9 161.95 212.1 147.2 225.35 127.75 227.1 124.65 227.4 121.5 227.4 96.25 227.4 78.35 209.55 64.15 195.3 61.25 176.4L60.5 166.4Q60.5 144.95 73.35 128.85 75.65 125.95 78.3 123.25 81.05 120.5 83.95 118.2 100.1 105.35 121.55 105.35 146.8 105.35 164.65 123.2Z"/><animate attributeName="display" repeatCount="indefinite" dur="10.542s" keyTimes="0;.008;.012;1" values="none;inline;none;none"/></g><g display="none" id="Layer241_0_FILL"><path fill="#999" stroke="none" d="M148.35 139.5Q137.25 128.3 121.5 128.3 105.75 128.3 94.65 139.5 83.5 150.6 83.5 166.35 83.5 182.1 94.65 193.25 105.75 204.4 121.5 204.4 137.25 204.4 148.35 193.25 159.55 182.1 159.55 166.35 159.55 150.6 148.35 139.5M121.5 132.55Q135.5 132.55 145.35 142.4 146.85 143.9 148.2 145.55 154.95 154 155.3 165.1 155.35 165.75 155.35 166.45 155.3 180.4 145.4 190.25 144.7 191 143.95 191.7 135.75 199.05 124.9 200 123.2 200.15 121.45 200.15 107.5 200.15 97.6 190.25 89.7 182.35 88.1 171.85L87.7 166.35Q87.7 154.5 94.8 145.6 96.05 144 97.55 142.55 99.05 141 100.7 139.7 109.6 132.55 121.5 132.55Z"/><animate attributeName="display" repeatCount="indefinite" dur="10.542s" keyTimes="0;.004;.008;1" values="none;inline;none;none"/></g><g id="Layer240_0_FILL"><path fill="#999" stroke="none" d="M120.75 165.6Q120.4 165.9 120.4 166.35 120.4 166.8 120.75 167.1 121.05 167.45 121.5 167.45 121.95 167.45 122.25 167.1 122.6 166.8 122.6 166.35 122.6 165.9 122.25 165.6 121.95 165.25 121.5 165.25 121.05 165.25 120.75 165.6M120.9 166.95Q120.65 166.7 120.65 166.35 120.65 166 120.9 165.75 121.15 165.5 121.5 165.5 121.85 165.5 122.1 165.75 122.35 166 122.35 166.35 122.35 166.7 122.1 166.95 121.85 167.2 121.5 167.2 121.15 167.2 120.9 166.95Z"/><animate attributeName="display" repeatCount="indefinite" dur="10.542s" keyTimes="0;.004;1" values="inline;none;none"/></g><g display="none" id="Layer7_0_FILL"><path fill="#999" stroke="none" d="M78.2 267.65Q60.25 249.7 60.25 224.35L13.1 224.35Q13.1 269.25 44.85 300.95 76.55 332.75 121.5 332.75 166.45 332.75 198.1 300.95 229.9 269.25 229.9 224.35L182.75 224.35Q182.75 249.7 164.8 267.65 146.85 285.6 121.5 285.6 96.05 285.6 78.2 267.65Z"/><animate attributeName="display" repeatCount="indefinite" dur="10.542s" keyTimes="0;.079;1" values="none;inline;inline"/></g><g display="none" id="Layer6_0_FILL"><path fill="#999" stroke="none" d="M60.25 222.7L13.1 222.7Q13.1 267.6 44.85 299.3 76.55 331.1 121.5 331.1 166.45 331.1 198.1 299.3 229.9 267.6 229.9 222.7L182.75 222.7Q182.75 248.05 164.8 266 146.85 283.95 121.5 283.95 96.05 283.95 78.2 266 60.25 248.05 60.25 222.7Z"/><animate attributeName="display" repeatCount="indefinite" dur="10.542s" keyTimes="0;.075;.079;1" values="none;inline;none;none"/></g><g display="none" id="Layer5_0_FILL"><path fill="#999" stroke="none" d="M60.25 217.95L13.1 217.95Q13.1 262.85 44.85 294.55 76.55 326.35 121.5 326.35 166.45 326.35 198.1 294.55 229.9 262.85 229.9 217.95L182.75 217.95Q182.75 243.3 164.8 261.25 146.85 279.2 121.5 279.2 96.05 279.2 78.2 261.25 60.25 243.3 60.25 217.95Z"/><animate attributeName="display" repeatCount="indefinite" dur="10.542s" keyTimes="0;.071;.075;1" values="none;inline;none;none"/></g><g display="none" id="Layer4_0_FILL"><path fill="#999" stroke="none" d="M60.25 210.05L13.1 210.05Q13.1 254.95 44.85 286.65 76.55 318.45 121.5 318.45 166.45 318.45 198.1 286.65 229.9 254.95 229.9 210.05L182.75 210.05Q182.75 235.4 164.8 253.35 146.85 271.3 121.5 271.3 96.05 271.3 78.2 253.35 60.25 235.4 60.25 210.05Z"/><animate attributeName="display" repeatCount="indefinite" dur="10.542s" keyTimes="0;.067;.071;1" values="none;inline;none;none"/></g><g display="none" id="Layer3_0_FILL"><path fill="#999" stroke="none" d="M78.2 242.25Q60.25 224.3 60.25 198.95L13.1 198.95Q13.1 243.85 44.85 275.55 76.55 307.35 121.5 307.35 166.45 307.35 198.1 275.55 229.9 243.85 229.9 198.95L182.75 198.95Q182.75 224.3 164.8 242.25 146.85 260.2 121.5 260.2 96.05 260.2 78.2 242.25Z"/><animate attributeName="display" repeatCount="indefinite" dur="10.542s" keyTimes="0;.063;.067;1" values="none;inline;none;none"/></g><g display="none" id="Layer2_0_FILL"><path fill="#999" stroke="none" d="M229.9 184.6L182.75 184.6Q182.75 209.95 164.8 227.9 146.85 245.85 121.5 245.85 96.05 245.85 78.2 227.9 60.25 209.95 60.25 184.6L13.1 184.6Q13.1 229.5 44.85 261.2 76.55 293 121.5 293 166.45 293 198.1 261.2 229.9 229.5 229.9 184.6Z"/><animate attributeName="display" repeatCount="indefinite" dur="10.542s" keyTimes="0;.059;.063;1" values="none;inline;none;none"/></g><g display="none" id="Layer1_0_FILL"><path fill="#999" stroke="none" d="M229.9 167.2L182.75 167.2Q182.75 192.55 164.8 210.5 146.85 228.45 121.5 228.45 96.05 228.45 78.2 210.5 60.25 192.55 60.25 167.2L13.1 167.2Q13.1 212.1 44.85 243.8 76.55 275.6 121.5 275.6 166.45 275.6 198.1 243.8 229.9 212.1 229.9 167.2Z"/><animate attributeName="display" repeatCount="indefinite" dur="10.542s" keyTimes="0;.055;.059;1" values="none;inline;none;none"/></g></g></svg>